<?xml version="1.0" encoding="utf-8"?>
<!-- Svg Vector Icons : http://www.onlinewebfonts.com/icon -->
<!DOCTYPE svg PUBLIC "-//W3C//DTD SVG 1.1//EN" "http://www.w3.org/Graphics/SVG/1.1/DTD/svg11.dtd">
<svg version="1.1" xmlns="http://www.w3.org/2000/svg" xmlns:xlink="http://www.w3.org/1999/xlink" x="0px" y="0px" viewBox="0 0 1000 1000" enable-background="new 0 0 1000 1000" xml:space="preserve">
<metadata> Svg Vector Icons : http://www.onlinewebfonts.com/icon </metadata>
<g><g><path d="M387.3,105.9c-50.3,37.4-63.8,96.7-61.4,128.3c3.2,38.6,11,88.8,11,88.8s-15.5,8.4-15.5,42.3c5.4,85,33.8,48.3,39.7,85.6c14.1,89.8,46.2,73.8,46.2,122.9c0,81.7-33.7,119.8-138.8,165.1C163.1,784.2,54.3,841.4,54.3,940.5V990h891.4v-49.5c0-99-108.8-156.2-214.3-201.6c-105.1-45.3-138.7-83.4-138.7-165.1c0-49,32-33,46.2-122.9c5.9-37.3,34.3-0.6,39.8-85.6c0-33.9-15.6-42.3-15.6-42.3s7.8-50.2,10.9-88.8c3.2-40.5-19.7-126.8-113.9-153.3c-16.5-16.8-27.6-43.6,23.1-70.5C472.2,5.1,446.4,63.2,387.3,105.9L387.3,105.9z"/></g></g>
</svg>